Coordinates
version=1
nRows=5
nColumns=42
inDegrees=yes

Units are S.I. units (second, meters, Newtons, ...)
If the header above contains a line with 'inDegrees', this indicates whether rotational values are in degrees (yes) or radians (no).

endheader
time	pelvis_tilt	pelvis_list	pelvis_rotation	pelvis_tx	pelvis_ty	pelvis_tz	hip_flexion_r	hip_adduction_r	hip_rotation_r	knee_angle_r	knee_adduction_r	knee_angle_r_beta	ankle_angle_r	subtalar_angle_r	mtp_angle_r	hip_flexion_l	hip_adduction_l	hip_rotation_l	knee_angle_l	knee_adduction_l	knee_angle_l_beta	ankle_angle_l	subtalar_angle_l	mtp_angle_l	lumbar_extension	lumbar_bending	lumbar_rotation	arm_flex_r	arm_add_r	arm_rot_r	elbow_flex_r	pro_sup_r	wrist_flex_r	wrist_dev_r	arm_flex_l	arm_add_l	arm_rot_l	elbow_flex_l	pro_sup_l	wrist_flex_l	wrist_dev_l
      0.50000000	      2.21189653	      2.94400467	      5.29288113	     -1.07026751	      0.87160432	     -0.15532867	      9.00173792	     -4.69455289	    -27.69128382	     32.89105350	     -5.61235901	      0.57405718	     23.28847335	     37.90123130	     -9.56151963	     16.22317900	      4.03944563	      4.77056389	     59.02910220	     -4.22226197	      1.03025219	      2.63090291	    -10.55941880	     -9.56151963	    -25.53813310	     -0.49069245	     -4.42327476	      6.32232963	     -8.72201272	    -17.70738867	     41.47212034	     90.00000001	      0.00000000	      0.00000000	     16.45778852	    -11.29177367	     32.36962754	     55.69683194	     90.00000001	      0.00000000	      0.00000000
      0.51000000	      2.17254602	      2.91862082	      5.31944470	     -1.06783671	      0.87156913	     -0.15491642	      8.75978365	     -4.64807149	    -27.69915537	     32.76110784	     -5.47547551	      0.57178920	     23.33407708	     37.81980690	     -9.54441032	     16.94568880	      4.06000685	      4.71855853	     58.81980088	     -4.09290342	      1.02659919	      2.76762772	    -10.42910734	     -9.54441032	    -25.47848434	     -0.46924079	     -4.41454544	      6.29969750	     -8.70985459	    -17.64176667	     41.53621370	     90.00000001	      0.00000000	      0.00000000	     16.60899093	    -11.20114972	     32.38356122	     55.80593272	     90.00000001	      0.00000000	      0.00000000
      0.52000000	      2.16539963	      2.90506050	      5.29536227	     -1.06553573	      0.87157233	     -0.15436130	      8.56371144	     -4.60383687	    -27.62852625	     32.75934638	     -5.35004677	      0.57175846	     23.29126520	     37.58031443	     -9.52834571	     17.62981826	      4.03440647	      4.61700603	     58.63122907	     -3.96496544	      1.02330799	      2.84527245	    -10.22073334	     -9.52834571	    -25.50847402	     -0.49168752	     -4.38813923	      6.33414437	     -8.69711132	    -17.57868086	     41.63727342	     90.00000001	      0.00000000	      0.00000000	     16.82061099	    -11.16349881	     32.31538422	     55.92907295	     90.00000001	      0.00000000	      0.00000000
      0.53000000	      1.93701573	      2.67694886	      5.60828268	     -1.06312820	      0.87105689	     -0.15429508	      8.45711961	     -4.34440130	    -27.96140633	     32.46519525	     -5.28600221	      0.56662455	     23.67391994	     37.88829847	     -9.47100152	     18.66788654	      3.87277126	      5.13026991	     58.66026526	     -3.61322163	      1.02381477	      3.45876728	     -9.30797290	     -9.47100152	    -25.17253101	     -0.18547765	     -4.56429101	      6.17298945	     -8.77782539	    -17.28787016	     41.82281164	     90.00000001	      0.00000000	      0.00000000	     16.90400671	    -11.21573658	     32.65488703	     56.06171992	     90.00000001	      0.00000000	      0.00000000
      0.54000000	      1.90962555	      2.67812090	      5.64262567	     -1.06070147	      0.87103677	     -0.15397943	      8.21116816	     -4.32057071	    -27.99047732	     32.33075135	     -5.17692530	      0.56427806	     23.70821878	     37.84244263	     -9.45256721	     19.34719270	      3.92108898	      5.08664482	     58.46340337	     -3.58422716	      1.02037888	      3.57790840	     -9.08971679	     -9.45256721	    -25.13456464	     -0.18832593	     -4.59416549	      6.15987564	     -8.74481238	    -17.20240217	     41.88744438	     90.00000001	      0.00000000	      0.00000000	     17.03441088	    -11.19269888	     32.64353795	     56.10210238	     90.00000001	      0.00000000	      0.00000000
